<svg width="21" height="21" viewBox="0 0 21 21" fill="none" xmlns="http://www.w3.org/2000/svg">
<path d="M6.28979 0.864075C8.12232 0.104608 10.1391 -0.0937915 12.0847 0.292786C14.0302 0.67938 15.8175 1.63372 17.2205 3.03595C18.1524 3.96772 18.8919 5.07432 19.3962 6.29181C19.9005 7.50919 20.1599 8.81396 20.1599 10.1317C20.1599 11.4495 19.9006 12.755 19.3962 13.9725C18.955 15.0376 18.3338 16.0175 17.5613 16.8699L17.2205 17.2274C16.286 18.1556 15.1819 18.8965 13.9685 19.409H13.9675C12.7499 19.9092 11.446 20.1669 10.1296 20.1668C7.46916 20.1654 4.91764 19.1081 3.03687 17.2264C1.15603 15.3446 0.100341 12.7922 0.100342 10.1317C0.100018 8.14812 0.687203 6.20888 1.78882 4.55939C2.89059 2.90977 4.45724 1.62359 6.28979 0.864075ZM10.9343 1.37189C9.09372 1.2057 7.24724 1.62243 5.65601 2.56232C4.06471 3.50232 2.80803 4.91881 2.06519 6.61115C1.32253 8.30335 1.13018 10.1865 1.51538 11.994C1.90066 13.8014 2.84442 15.4421 4.21265 16.6844C5.55323 17.9016 7.23551 18.6743 9.03003 18.9022V12.5565H7.25952C6.96806 12.5563 6.68834 12.4412 6.48218 12.2352C6.27589 12.0289 6.15991 11.7486 6.15991 11.4568C6.15992 11.1652 6.27602 10.8858 6.48218 10.6795C6.68837 10.4733 6.96794 10.3574 7.25952 10.3572H9.03003V7.21661C9.0301 6.52716 9.30423 5.86625 9.79175 5.37872C10.2793 4.8912 10.9402 4.61709 11.6296 4.617H13.3298C13.6216 4.617 13.9019 4.73298 14.1082 4.93927C14.3142 5.14547 14.4304 5.42511 14.4304 5.71661C14.4304 6.00832 14.3144 6.28865 14.1082 6.49493C13.9019 6.70122 13.6216 6.8172 13.3298 6.8172H12.1296C11.8911 6.81728 11.6626 6.91216 11.4939 7.08087C11.3252 7.24959 11.2303 7.47803 11.2302 7.71661V10.3572H13.0095C13.3013 10.3572 13.5816 10.4732 13.7878 10.6795C13.994 10.8858 14.1101 11.1652 14.1101 11.4568C14.1101 11.7486 13.9941 12.0289 13.7878 12.2352C13.5816 12.4413 13.3012 12.5565 13.0095 12.5565H11.2302V18.9022C13.1788 18.6569 14.9913 17.77 16.3787 16.3768C17.1971 15.5535 17.849 14.5793 18.2976 13.5086L18.4226 13.1863C19.0164 11.564 19.1214 9.79974 18.7205 8.11407C18.2927 6.31621 17.3109 4.69784 15.9138 3.4881C14.5167 2.27843 12.7748 1.53814 10.9343 1.37189Z" fill="#B81119" stroke="#B81119" stroke-width="0.2"/>
</svg>
