<svg width="13" height="13" viewBox="0 0 13 13" fill="none" xmlns="http://www.w3.org/2000/svg">
<path d="M10.8942 0H1.77083C1.30158 0.00130842 0.851923 0.188298 0.52011 0.52011C0.188298 0.851923 0.00130842 1.30158 0 1.77083V10.8942C0.00130842 11.3634 0.188298 11.8131 0.52011 12.1449C0.851923 12.4767 1.30158 12.6637 1.77083 12.665H10.8942C11.3638 12.665 11.8142 12.4784 12.1463 12.1463C12.4784 11.8142 12.665 11.3638 12.665 10.8942V1.77083C12.665 1.30118 12.4784 0.850761 12.1463 0.518665C11.8142 0.186569 11.3638 0 10.8942 0ZM11.9567 10.8942C11.9548 11.1754 11.8423 11.4446 11.6434 11.6434C11.4446 11.8423 11.1754 11.9548 10.8942 11.9567H1.77083C1.48961 11.9548 1.22044 11.8423 1.02158 11.6434C0.822727 11.4446 0.71019 11.1754 0.708333 10.8942V1.77083C0.71019 1.48961 0.822727 1.22044 1.02158 1.02158C1.22044 0.822727 1.48961 0.71019 1.77083 0.708333H10.8942C11.1754 0.71019 11.4446 0.822727 11.6434 1.02158C11.8423 1.22044 11.9548 1.48961 11.9567 1.77083V10.8942Z" fill="#B81119"/>
<path d="M2.34883 5.44567C2.34883 5.2578 2.42346 5.07764 2.5563 4.9448C2.68914 4.81196 2.8693 4.73733 3.05717 4.73733C3.24503 4.73733 3.4252 4.81196 3.55803 4.9448C3.69087 5.07764 3.7655 5.2578 3.7655 5.44567V10.0498C3.7655 10.2377 3.69087 10.4179 3.55803 10.5507C3.4252 10.6835 3.24503 10.7582 3.05717 10.7582C2.8693 10.7582 2.68914 10.6835 2.5563 10.5507C2.42346 10.4179 2.34883 10.2377 2.34883 10.0498V5.44567Z" fill="#B81119"/>
<path d="M3.05717 3.31783C3.44837 3.31783 3.7655 3.0007 3.7655 2.6095C3.7655 2.2183 3.44837 1.90117 3.05717 1.90117C2.66596 1.90117 2.34883 2.2183 2.34883 2.6095C2.34883 3.0007 2.66596 3.31783 3.05717 3.31783Z" fill="#B81119"/>
<path d="M10.3133 7.30292V10.0513C10.3133 10.2391 10.2387 10.4193 10.1059 10.5521C9.97303 10.685 9.79286 10.7596 9.605 10.7596C9.41714 10.7596 9.23697 10.685 9.10413 10.5521C8.97129 10.4193 8.89667 10.2391 8.89667 10.0513V7.30292C8.89667 6.99952 8.77614 6.70855 8.56161 6.49402C8.34708 6.27948 8.0561 6.15896 7.75271 6.15896C7.44931 6.15896 7.15834 6.27948 6.94381 6.49402C6.72927 6.70855 6.60875 6.99952 6.60875 7.30292V10.0513C6.60875 10.2391 6.53412 10.4193 6.40128 10.5521C6.26845 10.685 6.08828 10.7596 5.90042 10.7596C5.71256 10.7596 5.53239 10.685 5.39955 10.5521C5.26671 10.4193 5.19208 10.2391 5.19208 10.0513V5.44708C5.19501 5.26013 5.27057 5.08166 5.40278 4.94945C5.53499 4.81724 5.71347 4.74167 5.90042 4.73875C6.02039 4.73546 6.13902 4.76467 6.24376 4.82327C6.3485 4.88188 6.43545 4.9677 6.49542 5.07167C6.8849 4.85092 7.32552 4.7363 7.77321 4.73926C8.22089 4.74223 8.65995 4.86268 9.04648 5.08858C9.43301 5.31447 9.75346 5.63788 9.97577 6.02648C10.1981 6.41507 10.3145 6.85522 10.3133 7.30292Z" fill="#B81119"/>
</svg>
