<svg width="78" height="83" viewBox="0 0 78 83" fill="none" xmlns="http://www.w3.org/2000/svg">
<path d="M38.75 0C33.7772 0 29.0081 1.97544 25.4918 5.49175C21.9754 9.00806 20 13.7772 20 18.75C20 23.7228 21.9754 28.492 25.4918 32.0083C29.0081 35.5246 33.7772 37.5 38.75 37.5C43.7228 37.5 48.492 35.5246 52.0083 32.0083C55.5246 28.492 57.5 23.7228 57.5 18.75C57.5 13.7772 55.5246 9.00806 52.0083 5.49175C48.492 1.97544 43.7228 0 38.75 0ZM18.75 47.5C13.7772 47.5 9.00806 49.4755 5.49175 52.9918C1.97544 56.5081 0 61.2772 0 66.25V72.19C0 75.96 2.73 79.17 6.45 79.775C27.84 83.27 49.66 83.27 71.05 79.775C72.8491 79.479 74.4848 78.5542 75.6659 77.1653C76.847 75.7763 77.497 74.0133 77.5 72.19V66.25C77.5 61.2772 75.5246 56.5081 72.0083 52.9918C68.492 49.4755 63.7228 47.5 58.75 47.5H57.05C56.1167 47.5033 55.21 47.6467 54.33 47.93L50 49.345C42.6899 51.7315 34.8102 51.7315 27.5 49.345L23.17 47.93C22.2924 47.6485 21.3767 47.5035 20.455 47.5H18.75Z" fill="#F3F3F3"/>
</svg>
