<svg width="14" height="14" viewBox="0 0 14 14" fill="none" xmlns="http://www.w3.org/2000/svg">
<path d="M9.73333 8.01667C9.6 7.95 8.73333 7.55 8.6 7.48333C8.46667 7.41667 8.33333 7.41667 8.2 7.55C8.06667 7.68333 7.8 8.08333 7.66667 8.21667C7.6 8.35 7.46667 8.35 7.33333 8.28333C6.86667 8.08333 6.4 7.81667 6 7.48333C5.66667 7.15 5.33333 6.75 5.06667 6.35C5 6.21667 5.06667 6.08333 5.13333 6.01667C5.2 5.95 5.26667 5.81667 5.4 5.75C5.46667 5.68333 5.53333 5.55 5.53333 5.48333C5.6 5.41667 5.6 5.28333 5.53333 5.21667C5.46667 5.15 5.13333 4.35 5 4.01667C4.93333 3.55 4.8 3.55 4.66667 3.55H4.33333C4.2 3.55 4 3.68333 3.93333 3.75C3.53333 4.15 3.33333 4.61667 3.33333 5.15C3.4 5.75 3.6 6.35 4 6.88333C4.73333 7.95 5.66667 8.81667 6.8 9.35C7.13333 9.48333 7.4 9.61667 7.73333 9.68333C8.06667 9.81667 8.4 9.81667 8.8 9.75C9.26667 9.68333 9.66667 9.35 9.93333 8.95C10.0667 8.68333 10.0667 8.41667 10 8.15L9.73333 8.01667ZM11.4 1.95C8.8 -0.65 4.6 -0.65 2 1.95C-0.133333 4.08333 -0.533333 7.35 0.933333 9.95L0 13.35L3.53333 12.4167C4.53333 12.95 5.6 13.2167 6.66667 13.2167C10.3333 13.2167 13.2667 10.2833 13.2667 6.61667C13.3333 4.88333 12.6 3.21667 11.4 1.95ZM9.6 11.2833C8.73333 11.8167 7.73333 12.15 6.66667 12.15C5.66667 12.15 4.73333 11.8833 3.86667 11.4167L3.66667 11.2833L1.6 11.8167L2.13333 9.81667L2 9.61667C0.4 6.95 1.2 3.61667 3.8 1.95C6.4 0.283333 9.73333 1.15 11.3333 3.68333C12.9333 6.28333 12.2 9.68333 9.6 11.2833Z" fill="#696969"/>
</svg>
