<svg width="13" height="13" viewBox="0 0 13 13" fill="none" xmlns="http://www.w3.org/2000/svg">
<path d="M6.24421 3.04109C4.47078 3.04109 3.03953 4.47234 3.03953 6.24578C3.03953 8.01921 4.47078 9.45046 6.24421 9.45046C8.01765 9.45046 9.4489 8.01921 9.4489 6.24578C9.4489 4.47234 8.01765 3.04109 6.24421 3.04109ZM6.24421 8.32859C5.09734 8.32859 4.1614 7.39265 4.1614 6.24578C4.1614 5.0989 5.09734 4.16296 6.24421 4.16296C7.39109 4.16296 8.32703 5.0989 8.32703 6.24578C8.32703 7.39265 7.39109 8.32859 6.24421 8.32859ZM9.58015 2.16296C9.16609 2.16296 8.83171 2.49734 8.83171 2.9114C8.83171 3.32546 9.16609 3.65984 9.58015 3.65984C9.99422 3.65984 10.3286 3.32703 10.3286 2.9114C10.3287 2.81308 10.3094 2.7157 10.2719 2.62484C10.2343 2.53398 10.1792 2.45143 10.1097 2.3819C10.0401 2.31238 9.95757 2.25725 9.86671 2.21968C9.77585 2.18212 9.67847 2.16284 9.58015 2.16296ZM12.4911 6.24578C12.4911 5.38328 12.4989 4.52859 12.4505 3.66765C12.402 2.66765 12.1739 1.78015 11.4427 1.0489C10.7098 0.31609 9.8239 0.0895272 8.8239 0.0410897C7.9614 -0.00734777 7.10671 0.000464756 6.24578 0.000464756C5.38328 0.000464756 4.52859 -0.00734777 3.66765 0.0410897C2.66765 0.0895272 1.78015 0.317652 1.0489 1.0489C0.31609 1.78171 0.0895272 2.66765 0.0410897 3.66765C-0.00734777 4.53015 0.000464756 5.38484 0.000464756 6.24578C0.000464756 7.10671 -0.00734777 7.96296 0.0410897 8.8239C0.0895272 9.8239 0.317652 10.7114 1.0489 11.4427C1.78171 12.1755 2.66765 12.402 3.66765 12.4505C4.53015 12.4989 5.38484 12.4911 6.24578 12.4911C7.10828 12.4911 7.96296 12.4989 8.8239 12.4505C9.8239 12.402 10.7114 12.1739 11.4427 11.4427C12.1755 10.7098 12.402 9.8239 12.4505 8.8239C12.5005 7.96296 12.4911 7.10828 12.4911 6.24578ZM11.1161 9.93015C11.002 10.2145 10.8645 10.427 10.6442 10.6458C10.4239 10.8661 10.213 11.0036 9.92859 11.1177C9.10672 11.4442 7.15515 11.3708 6.24421 11.3708C5.33328 11.3708 3.38015 11.4442 2.55828 11.1192C2.2739 11.0052 2.0614 10.8677 1.84265 10.6473C1.62234 10.427 1.48484 10.2161 1.37078 9.93172C1.04578 9.10828 1.11921 7.15671 1.11921 6.24578C1.11921 5.33484 1.04578 3.38171 1.37078 2.55984C1.48484 2.27546 1.62234 2.06296 1.84265 1.84421C2.06296 1.62546 2.2739 1.4864 2.55828 1.37234C3.38015 1.04734 5.33328 1.12078 6.24421 1.12078C7.15515 1.12078 9.10828 1.04734 9.93015 1.37234C10.2145 1.4864 10.427 1.6239 10.6458 1.84421C10.8661 2.06453 11.0036 2.27546 11.1177 2.55984C11.4427 3.38171 11.3692 5.33484 11.3692 6.24578C11.3692 7.15671 11.4427 9.10828 11.1161 9.93015Z" fill="#ffffff"/>
</svg>
