<svg width="15" height="15" viewBox="0 0 15 15" fill="none" xmlns="http://www.w3.org/2000/svg">
<path d="M4.42126 0.590233C5.71548 0.0538413 7.13993 -0.0870557 8.51404 0.185936C9.88819 0.458965 11.1511 1.13299 12.142 2.12344C12.8001 2.78149 13.3219 3.56341 13.6781 4.42324C14.0342 5.28301 14.2172 6.20455 14.2172 7.13515C14.2172 8.06579 14.0343 8.98728 13.6781 9.84707C13.3219 10.7069 12.8001 11.4888 12.142 12.1469H12.141C11.4812 12.8023 10.7018 13.325 9.84509 13.6869H9.84412C8.98422 14.0401 8.06377 14.222 7.13416 14.2221C5.25511 14.2211 3.45274 13.4739 2.12439 12.1449C0.796214 10.8159 0.0501935 9.01405 0.0501709 7.13515C0.0499085 5.73429 0.464582 4.36458 1.24255 3.19961C2.0206 2.03468 3.12718 1.12666 4.42126 0.590233ZM7.70544 0.909569C6.39726 0.791453 5.08442 1.08722 3.95349 1.75527C2.82277 2.42326 1.93064 3.42972 1.40271 4.63223C0.87477 5.83496 0.737317 7.17374 1.01111 8.4584C1.28492 9.74299 1.95568 10.9094 2.9281 11.7924C3.88667 12.6627 5.09127 13.2133 6.37537 13.3715V8.83242H5.10095C4.89987 8.83242 4.70703 8.75193 4.56482 8.60976C4.42261 8.46755 4.34217 8.27475 4.34216 8.07363C4.34216 7.87251 4.4226 7.67971 4.56482 7.5375C4.70703 7.39532 4.89986 7.31484 5.10095 7.31484H6.37537V5.0707C6.37537 4.58779 6.5671 4.12409 6.90857 3.78262C7.25004 3.44114 7.71374 3.24941 8.19666 3.24941H9.40076C9.6017 3.24951 9.79477 3.32902 9.93689 3.47109C10.0791 3.61331 10.1586 3.80708 10.1586 4.0082C10.1585 4.20917 10.079 4.40222 9.93689 4.54433C9.79476 4.68644 9.60173 4.76592 9.40076 4.76601H8.55017C8.37565 4.76607 8.20874 4.83597 8.08533 4.95937C7.96192 5.08278 7.89203 5.2497 7.89197 5.42422V7.31484H9.17419C9.37515 7.31497 9.56822 7.39539 9.71033 7.5375C9.85239 7.67969 9.93201 7.87262 9.93201 8.07363C9.932 8.27464 9.8524 8.46758 9.71033 8.60976C9.56822 8.75187 9.37515 8.8323 9.17419 8.83242H7.89197V13.3715C9.28599 13.2014 10.5829 12.5686 11.5746 11.5727C12.1563 10.9876 12.6191 10.2955 12.9379 9.53457C13.4372 8.31985 13.5425 6.97928 13.2386 5.70156C12.9347 4.42375 12.2374 3.27329 11.2445 2.41348C10.2516 1.55372 9.01351 1.02774 7.70544 0.909569Z" fill="#ffffff" stroke="#ffffff" stroke-width="0.1"/>
</svg>
